# xmcd
#
# Track frame offsets: 
#        150
#        12040
#        28902
#        45100
#
# Disc length: 765 seconds
#
# Revision: 1
# Processed by: cddbd v1.5.1PL0 Copyright (c) Steve Scherf et al.
# Submitted via: ExactAudioCopy v0.95a5
#
DISCID=2002fb04
DTITLE=Joy Lynn White - Wild Love
DYEAR=1900
DGENRE=
TTITLE0=Wild Love
TTITLE1=You Were Right From Your Side
TTITLE2=True Confessions
TTITLE3=It's Amazing
EXTD=
EXTT0=
EXTT1=
EXTT2=
EXTT3=
PLAYORDER=
